<?xml version="1.0" encoding="utf-8"?>
<!-- Generator: Adobe Illustrator 16.0.3, SVG Export Plug-In . SVG Version: 6.00 Build 0)  -->
<!DOCTYPE svg PUBLIC "-//W3C//DTD SVG 1.1//EN" "http://www.w3.org/Graphics/SVG/1.1/DTD/svg11.dtd">
<svg version="1.1"
	 id="svg3063" xmlns:inkscape="http://www.inkscape.org/namespaces/inkscape" xmlns:dc="http://purl.org/dc/elements/1.1/" xmlns:sodipodi="http://sodipodi.sourceforge.net/DTD/sodipodi-0.dtd" xmlns:cc="http://creativecommons.org/ns#" xmlns:svg="http://www.w3.org/2000/svg" xmlns:rdf="http://www.w3.org/1999/02/22-rdf-syntax-ns#" sodipodi:docname="backpack.svg" inkscape:version="0.48.3.1 r9886"
	 xmlns="http://www.w3.org/2000/svg" xmlns:xlink="http://www.w3.org/1999/xlink" x="0px" y="0px" width="12px" height="12px"
	 viewBox="0 0 12 12" enable-background="new 0 0 12 12" xml:space="preserve">
<sodipodi:namedview  inkscape:cy="4.5052503" inkscape:cx="1.429084" id="base" borderopacity="1.0" pagecolor="#ffffff" inkscape:zoom="11.2" bordercolor="#666666" showgrid="false" inkscape:pageshadow="2" inkscape:document-units="px" inkscape:pageopacity="0.0" inkscape:window-height="592" inkscape:window-y="204" inkscape:window-x="280" inkscape:window-maximized="0" inkscape:current-layer="layer1" inkscape:window-width="830">
	</sodipodi:namedview>
<g>
	<path fill="#F7994D" d="M11.592,0.98C10.904,0.2,9.678,0.307,9.019,0.364C8.887,0.375,8.771,0.386,8.706,0.385
		C8.637,0.39,8.57,0.419,8.513,0.459c-0.701-0.388-1.629-0.47-2.25-0.47c-0.662,0-1.359,0.088-1.913,0.24
		C3.804,0.381,2.144,0.838,1.45,2.137C1.203,2.598,1.117,3.123,1.157,3.692C0.905,3.925,0.681,4.274,0.493,4.765
		c-0.582,1.516-0.855,4.303,0.171,5.381c1.22,1.282,4.113,1.872,5.772,1.872c0.415,0,0.753-0.036,0.968-0.108
		c0.096-0.033,0.188-0.065,0.281-0.098c-0.705-0.151-1.334-0.509-1.828-1.012C4.49,10.682,2.387,10.204,1.55,9.326
		c-0.264-0.275-0.462-1.14-0.312-2.445c0.074-0.64,0.209-1.175,0.351-1.575c0.145,0.297,0.361,0.643,0.651,0.928
		c-0.054,0.13-0.047,0.313,0.028,0.539c-0.123,0.136-0.188,0.356-0.08,0.682C2.002,7.631,2.062,7.905,2.137,8.232
		c0.016,0.07,0.065,0.127,0.131,0.156l1.121,0.477c0.028,0.012,0.059,0.02,0.089,0.02c0.003,0,0.006,0,0.011,0
		c0.125,0,0.226-0.101,0.226-0.225c0-0.034-0.008-0.065-0.022-0.095C3.632,8.074,3.691,8.049,3.777,8.014
		c0.09-0.037,0.145-0.129,0.137-0.225S3.835,7.612,3.74,7.592L3.68,7.578C3.67,7.352,3.724,7.299,3.771,7.264
		C3.799,7.242,3.825,7.22,3.847,7.199C3.904,7.141,3.924,7.056,3.9,6.979S3.812,6.841,3.731,6.826L3.726,6.825
		c-0.01-0.02-0.026-0.045-0.03-0.057c0.563-0.061,1.14-0.378,1.72-0.978c0.834-0.863,1.313-1.83,1.698-2.606
		c0.398-0.803,0.66-1.291,0.951-1.291c0.028,0,0.075,0.011,0.12,0.02c0.306,0.225,0.604,1.235,0.836,2.47
		c0.589,0.102,1.126,0.35,1.584,0.706c0.469-2.283,0.121-3.291-1.233-3.727l-0.189-0.39c0.595-0.05,1.487-0.094,1.936,0.415
		c0.343,0.388,0.402,1.072,0.178,2.032l-0.193,0.807c-0.083,0.343-0.168,0.695-0.254,1.072c0.189,0.176,0.362,0.369,0.514,0.583
		c0.12-0.552,0.237-1.038,0.353-1.511l0.194-0.811C12.181,2.394,12.074,1.527,11.592,0.98z M3.218,8.308L2.553,8.025
		c-0.024-0.106-0.051-0.23-0.054-0.251C2.5,7.773,2.504,7.771,2.517,7.766l0.745,0.172C3.226,8.041,3.214,8.162,3.218,8.308z
		 M3.226,7.453l-0.63-0.151C2.549,7.167,2.57,7.103,2.605,7.061l0.667,0.147C3.25,7.275,3.231,7.353,3.226,7.453z M2.665,6.561
		C2.719,6.592,2.78,6.611,2.838,6.637L2.672,6.602C2.667,6.584,2.668,6.575,2.665,6.561z M6.068,2.68
		C5.701,3.423,5.283,4.265,4.573,4.999C4.171,5.416,3.794,5.646,3.513,5.646c-0.489,0-0.879-0.762-1.036-1.223
		C2.23,3.708,2.231,3.135,2.479,2.671c0.31-0.581,1.024-1.017,2.184-1.337c0.456-0.126,1.039-0.198,1.6-0.198
		c0.267,0,0.519,0.017,0.747,0.047C6.629,1.551,6.353,2.106,6.068,2.68z M10.168,3.944c-0.128-0.647-0.29-1.257-0.493-1.771
		C10.066,2.429,10.275,2.896,10.168,3.944z"/>
	<path fill="#F7994D" d="M8.986,4.755c-0.309-0.329-0.773-0.329-1.082,0L5.198,7.796C4.889,8.124,4.966,8.535,5.43,8.535h1.778
		v2.467c0,0.41,0.387,0.82,0.851,0.82h0.773c0.387,0,0.695-0.41,0.695-0.82V8.535h1.934c0.387,0,0.541-0.493,0.231-0.821
		L8.986,4.755z"/>
</g>
</svg>
